# xmcd
#
# Track frame offsets: 
#        150
#        15247
#        29547
#        48389
#        63035
#        76390
#        90825
#        102212
#        121846
#        141749
#        156217
#        174360
#
# Disc length: 2614 seconds
#
# Revision: 1
# Processed by: cddbd v1.5.1PL0 Copyright (c) Steve Scherf et al.
# Submitted via: ExactAudioCopy v0.95a5
#
DISCID=8a0a340c
DTITLE=DumDum Boys - I Dødens Dal
DYEAR=2004
DGENRE=Classic Rock
TTITLE0=Boom Boom (live)
TTITLE1=Mitt Hjertes Trell (live)
TTITLE2=En Vill En (live)
TTITLE3=Bulldetektor (live)
TTITLE4=Blind (live)
TTITLE5=Plaster på Såret (live)
TTITLE6=Fant Frimann (live)
TTITLE7=Metallic Hvit (live)
TTITLE8=Splitter Pine (live)
TTITLE9=Hull i Himmelen (live)
TTITLE10=Lunch i det Grønne (live)
TTITLE11=Idyll (live)
EXTD=
EXTT0=
EXTT1=
EXTT2=
EXTT3=
EXTT4=
EXTT5=
EXTT6=
EXTT7=
EXTT8=
EXTT9=
EXTT10=
EXTT11=
PLAYORDER=
